<svg version="1.1" xmlns="http://www.w3.org/2000/svg" style="display: block;" viewBox="0 0 2048 2048" width="1024" height="1024">
<defs>
	<linearGradient id="Gradient1" gradientUnits="userSpaceOnUse" x1="2015.85" y1="108.627" x2="1633.34" y2="356.869">
		<stop class="stop0" offset="0" stop-opacity="1" stop-color="rgb(0,0,19)"/>
		<stop class="stop1" offset="1" stop-opacity="1" stop-color="rgb(3,3,45)"/>
	</linearGradient>
</defs>
<path transform="translate(0,0)" fill="rgb(243,237,229)" d="M 0 0 L 1877.3 0 L 1942.23 0 L 2046.54 0 L 2048 0 L 2048 155.964 L 2048 230.367 L 2048 233.648 L 2048 1188.98 L 2048 1197.07 L 2048 1526.74 L 2048 1539.27 L 2048 1604.27 L 2048 1612.63 L 2048 1715.7 L 2048 1725.23 L 2048 1783.76 L 2048 1792.75 L 2048 1852.71 L 2048 1863.6 L 2048 1892.65 L 2048 1897.27 L 2048 2048 L 0 2048 L 0 1053.87 L 0 1045.96 L 0 0 z"/>
<path transform="translate(0,0)" fill="rgb(5,5,38)" d="M 253.698 1641.99 C 265.491 1644.03 276.899 1647.53 288.179 1651.48 L 298.114 1644.83 C 317.752 1651.15 336.893 1660.16 356.351 1667.2 C 490.95 1715.91 621.435 1775.3 751.173 1835.6 C 776.721 1847.48 829.11 1867.46 848.867 1884.35 C 860.297 1894.12 868.363 1908.32 869.15 1923.5 C 869.856 1937.13 864.657 1948.04 855.782 1957.97 C 852.287 1961.26 848.56 1964.28 844.354 1966.62 C 832.519 1973.23 818.987 1975.11 805.935 1971.35 C 783.248 1964.81 761.106 1950.99 740.297 1939.91 L 655.295 1894.45 C 538.883 1832.02 421.176 1770.77 309.818 1699.59 C 302.946 1695.2 281.844 1683.66 278.223 1677.06 C 278.454 1674.92 278.603 1672.91 278.538 1670.76 C 270.162 1664.24 258.419 1660 248.793 1655.37 C 249.974 1650.5 251.018 1646.31 253.698 1641.99 z"/>
<path transform="translate(0,0)" fill="rgb(240,168,145)" d="M 803.682 1868.8 L 818.131 1875.22 C 811.543 1879.84 805.345 1884.32 799.924 1890.33 C 783.463 1908.56 780.761 1928.62 781.931 1952.31 C 776.352 1950.13 771.482 1947.78 766.439 1944.52 C 765.538 1935.16 765.729 1925.47 767.694 1916.25 C 772.27 1894.76 785.811 1880.51 803.682 1868.8 z"/>
<path transform="translate(0,0)" fill="rgb(240,168,145)" d="M 298.383 1653.43 A 1174.84 1174.84 0 0 0 366.93 1680.48 C 364.996 1681.37 363.013 1682.27 361.203 1683.39 C 353.206 1688.36 350.43 1696.51 348.503 1705.19 C 348.397 1707.85 347.98 1710.12 347.396 1712.7 C 338.655 1709.85 298.021 1682.32 287.156 1675.12 C 290.52 1667.57 294.19 1660.55 298.383 1653.43 z"/>
<path transform="translate(0,0)" fill="rgb(240,168,145)" d="M 826.62 1880.83 C 829.07 1881.64 831.331 1882.61 833.626 1883.8 C 845.621 1890.03 855.286 1901.06 859.054 1914.13 C 862.023 1924.44 861.071 1935.62 855.601 1944.94 C 848.991 1956.2 838.738 1960.9 826.67 1964.1 C 813.403 1965.17 802.971 1962.5 790.958 1956.98 C 788.579 1944.36 789.337 1929.6 793.492 1917.43 C 799.271 1900.49 810.82 1888.72 826.62 1880.83 z"/>
<path transform="translate(0,0)" fill="rgb(203,212,232)" d="M 373.58 1684.81 C 387.908 1684.03 464.206 1717.22 483.001 1724.44 C 467.198 1735.04 460.184 1747.81 456.282 1765.99 L 454.817 1776.27 L 397.072 1743.38 C 383.603 1735.75 369.768 1728.37 357.038 1719.54 C 356.758 1713.58 356.15 1707.25 357.815 1701.45 C 360.233 1693.02 366.453 1688.98 373.58 1684.81 z"/>
<path transform="translate(0,0)" fill="rgb(240,168,145)" d="M 492.672 1728.94 A 4514.12 4514.12 0 0 1 604.141 1777.98 A 10475.1 10475.1 0 0 1 795.226 1865.18 A 211.326 211.326 0 0 0 789.234 1869.54 C 769.379 1884.63 760.44 1903.1 757.089 1927.43 L 757.107 1940.17 L 558.044 1832.5 C 526.75 1815.63 494.123 1800.08 464.001 1781.21 C 463.861 1773.7 464.398 1766.07 466.626 1758.85 C 471.056 1744.48 479.644 1735.74 492.672 1728.94 z"/>
<path transform="translate(0,0)" fill="rgb(203,212,232)" d="M 1877.3 0 L 1942.23 0 L 2046.54 0 L 2048 0 L 2048 155.964 L 2048 230.367 L 2048 233.648 C 2046.88 241.308 2047.15 249.289 2046.62 257.01 C 2045.81 268.651 2044.16 280.489 2041.62 291.88 C 2037.8 309.001 2023.93 345.682 2008.09 354.819 C 2006.22 355.896 2006.22 355.902 2004.07 355.266 C 1999.72 348.613 2001.39 314.937 2000.42 303.708 C 1996.86 262.855 1973.19 226.183 1942.39 200.458 C 1956.13 227.608 1963.84 254.903 1961.72 285.499 C 1959.15 322.442 1943.58 356.136 1915.46 380.499 C 1870.62 419.349 1803.04 438.355 1744.34 434.015 C 1712.84 431.685 1679.85 422.261 1658.65 397.481 C 1630.85 364.99 1622.68 313.586 1626.38 272.182 C 1630.25 228.81 1651.12 184.157 1684.79 156.033 C 1734.48 114.537 1799.46 116.787 1859.96 122.306 C 1831.81 95.2462 1793.08 78.4992 1754.5 73.446 C 1743.68 72.0286 1729.11 73.4755 1719.06 69.6382 C 1716.81 68.7823 1716.08 68.2949 1715.1 66.0221 C 1715.41 65.4348 1715.67 64.8144 1716.03 64.26 C 1719.24 59.3864 1732.28 53.7303 1737.65 50.7987 C 1783.15 25.9564 1826.37 10.1936 1877.3 0 z"/>
<path transform="translate(0,0)" fill="rgb(243,237,229)" d="M 2046.54 0 L 2048 0 L 2048 155.964 L 2048 230.367 C 2041.96 193.885 2036.84 176.187 2016.2 145.259 C 2025.87 148.316 2035.74 155.091 2045.73 156.142 L 2046.49 150.708 C 2045.95 129.317 2046.71 107.717 2046.7 86.3014 C 2046.7 57.5266 2046.08 28.7739 2046.54 0 z"/>
<path transform="translate(0,0)" fill="rgb(5,5,38)" d="M 2029.45 27.7964 L 2032.52 28.1794 C 2034.29 29.865 2034.36 29.3323 2034.58 31.9922 C 2029.05 40.9214 2002.34 57.0998 1992.57 64.5617 A 960.909 960.909 0 0 0 1908.23 137.921 A 1968.81 1968.81 0 0 0 1761.38 296.464 A 1872.3 1872.3 0 0 0 1728.04 336.83 C 1721.06 345.695 1714.68 355.236 1707.14 363.625 L 1706.37 364.463 C 1704.25 364.104 1705.04 364.423 1703.16 363.364 C 1701.35 362.343 1701.76 362.201 1701.27 360.341 C 1706.22 347.346 1734.77 315.562 1744.78 303.587 C 1829.69 201.994 1920.35 103.796 2029.45 27.7964 z"/>
<path transform="translate(0,0)" fill="url(#Gradient1)" d="M 1877.3 0 L 1942.23 0 C 1927.3 4.8969 1906.83 3.47939 1890.81 6.03745 C 1835.68 14.8455 1780.27 32.5067 1733.08 62.8934 C 1777.88 64.9958 1835.84 83.4873 1866.65 117.716 C 1869.28 120.637 1871.34 123.189 1872.54 126.951 C 1872.22 128.277 1872.45 129.063 1871.1 129.748 C 1865.47 132.605 1843.45 128.512 1836.28 127.964 C 1755.36 121.791 1682.49 139.325 1647.92 220.117 C 1628.37 265.805 1629.39 319.082 1647.98 364.931 C 1657.41 388.183 1674 405.66 1697.17 415.385 C 1745.15 435.515 1809.43 427.199 1856.21 407.587 C 1893.32 392.031 1928.86 365.16 1944.19 326.874 A 139.606 139.606 0 0 0 1943.36 221.199 C 1937.75 208.118 1928.46 198.517 1923.51 187.794 C 1922.56 185.723 1922.7 185.3 1923.38 183.17 C 1926.51 182.103 1928.56 183.106 1931.46 184.549 C 1964.69 201.105 1991.46 238.249 2002.29 273.076 C 2009.37 295.82 2010.38 318.938 2010.03 342.563 C 2016.57 332.224 2022.87 321.991 2027.47 310.594 C 2039.86 279.885 2043.53 238.863 2036.09 206.539 C 2029.72 178.878 2016.97 159.112 1999.03 137.793 C 2000.21 135.987 2000.33 135.486 2002.59 135.059 C 2013.09 133.077 2037.09 145.776 2046.49 150.708 L 2045.73 156.142 C 2035.74 155.091 2025.87 148.316 2016.2 145.259 C 2036.84 176.187 2041.96 193.885 2048 230.367 L 2048 233.648 C 2046.88 241.308 2047.15 249.289 2046.62 257.01 C 2045.81 268.651 2044.16 280.489 2041.62 291.88 C 2037.8 309.001 2023.93 345.682 2008.09 354.819 C 2006.22 355.896 2006.22 355.902 2004.07 355.266 C 1999.72 348.613 2001.39 314.937 2000.42 303.708 C 1996.86 262.855 1973.19 226.183 1942.39 200.458 C 1956.13 227.608 1963.84 254.903 1961.72 285.499 C 1959.15 322.442 1943.58 356.136 1915.46 380.499 C 1870.62 419.349 1803.04 438.355 1744.34 434.015 C 1712.84 431.685 1679.85 422.261 1658.65 397.481 C 1630.85 364.99 1622.68 313.586 1626.38 272.182 C 1630.25 228.81 1651.12 184.157 1684.79 156.033 C 1734.48 114.537 1799.46 116.787 1859.96 122.306 C 1831.81 95.2462 1793.08 78.4992 1754.5 73.446 C 1743.68 72.0286 1729.11 73.4755 1719.06 69.6382 C 1716.81 68.7823 1716.08 68.2949 1715.1 66.0221 C 1715.41 65.4348 1715.67 64.8144 1716.03 64.26 C 1719.24 59.3864 1732.28 53.7303 1737.65 50.7987 C 1783.15 25.9564 1826.37 10.1936 1877.3 0 z"/>
<path transform="translate(0,0)" fill="rgb(5,5,38)" d="M 1718.11 1131.71 C 1768.47 1138.93 1818.78 1148.83 1868.87 1157.79 L 2048 1188.98 L 2048 1197.07 L 2048 1526.74 L 2048 1539.27 L 2048 1604.27 L 2048 1612.63 L 2048 1715.7 L 2048 1725.23 L 2048 1783.76 L 2048 1792.75 L 2048 1852.71 L 2048 1863.6 L 2048 1892.65 L 2048 1897.27 C 2047.1 1898.85 2047.32 1900.75 2047.25 1902.54 C 2041.31 1912.54 2002.39 1943.48 1991.54 1953.22 C 1973.54 1969.37 1956.05 1986.8 1937.44 2002.18 C 1933.77 2005.21 1929.82 2007.84 1925.48 2009.82 C 1924.97 2010.05 1924.46 2010.26 1923.95 2010.49 C 1922.09 2011.33 1920.78 2011.86 1918.69 2011.89 C 1903.87 2012.11 1849.23 1997.83 1831.39 1993.84 L 1601.05 1941.58 L 1311.02 1876.18 L 1214.01 1854.38 C 1200.91 1851.32 1187.38 1848.91 1174.5 1845.04 C 1160.57 1840.84 1146.79 1831.52 1136.56 1821.29 C 1120.2 1804.94 1110.53 1783.83 1110.58 1760.56 C 1110.63 1737.5 1120.68 1718.42 1134.43 1700.48 C 1149.81 1680.43 1168.63 1663.4 1186.45 1645.58 L 1282.7 1550.57 A 18875.7 18875.7 0 0 1 1535.67 1305.37 A 18527.5 18527.5 0 0 0 1718.11 1131.71 z"/>
<path transform="translate(0,0)" fill="rgb(240,168,145)" d="M 1248.23 1772.05 L 1316.02 1785.12 C 1318.73 1799.78 1321.53 1814.36 1317.22 1828.97 C 1312.52 1825.68 1308.57 1822.01 1304.47 1818.03 C 1297.56 1810.39 1291.55 1801.74 1284.76 1793.92 C 1276.13 1802.75 1267.47 1811.16 1257.58 1818.6 C 1253.74 1803.28 1251.15 1787.57 1248.23 1772.05 z"/>
<path transform="translate(0,0)" fill="rgb(247,207,140)" d="M 1157.96 1685.94 C 1159.71 1689.07 1157.21 1699.03 1156.76 1702.96 A 317.342 317.342 0 0 0 1155.19 1751.34 C 1156.43 1780.9 1163.11 1808.35 1173.5 1835.9 C 1165.95 1832.55 1158.86 1828.74 1151.94 1824.24 C 1149.66 1822.6 1147.55 1820.86 1145.5 1818.94 C 1129.42 1803.9 1119.45 1784.48 1118.77 1762.29 C 1117.83 1731.4 1137.97 1707.19 1157.96 1685.94 z"/>
<path transform="translate(0,0)" fill="rgb(254,248,221)" d="M 1163.86 1754.64 C 1188.71 1758.03 1213.89 1764.76 1238.49 1769.79 C 1243.69 1789.12 1246.64 1809.03 1251.65 1828.43 C 1225.63 1822.34 1199.32 1817.37 1173.26 1811.39 C 1168 1792.73 1165.33 1773.92 1163.86 1754.64 z"/>
<path transform="translate(0,0)" fill="rgb(254,248,221)" d="M 1167.32 1687.97 A 1254.36 1254.36 0 0 1 1237.52 1700.05 C 1233.33 1717.3 1235.05 1735.98 1236.61 1753.44 C 1236.84 1756 1237.45 1759.17 1235.77 1761.17 A 2832.44 2832.44 0 0 0 1163.56 1746.48 C 1162.24 1727.08 1163.75 1707.06 1167.32 1687.97 z"/>
<path transform="translate(0,0)" fill="rgb(240,168,145)" d="M 1245.59 1701.49 C 1269.45 1706.35 1293.78 1709.82 1317.8 1713.88 C 1312.48 1735.3 1312.68 1754.01 1315.31 1775.71 C 1305.32 1776.76 1258.9 1765.51 1246.01 1762.89 C 1243.28 1742.87 1241.74 1721.41 1245.59 1701.49 z"/>
<path transform="translate(0,0)" fill="rgb(254,248,221)" d="M 1924.24 1824.24 C 1966.76 1792.71 2008.81 1760.9 2048 1725.23 L 2048 1783.76 C 2034.62 1790.86 2016.51 1810.47 2004.63 1820.88 C 1976.5 1845.52 1948.01 1870.21 1918.76 1893.53 C 1918.47 1871.18 1917.11 1845.59 1924.24 1824.24 z"/>
<path transform="translate(0,0)" fill="rgb(254,248,221)" d="M 2048 1792.75 L 2048 1852.71 C 2026.15 1871.96 2005.93 1893.5 1984.53 1913.33 L 1945.49 1949.17 C 1936.9 1957.04 1927.58 1964.84 1920.08 1973.76 C 1915.41 1952.52 1915.56 1924.87 1918.4 1903.39 C 1932.33 1893.65 1945.14 1882.16 1958.18 1871.25 C 1988.69 1845.71 2018.22 1819.13 2048 1792.75 z"/>
<path transform="translate(0,0)" fill="rgb(240,168,145)" d="M 1791.73 1790.69 C 1836.83 1751.83 1879.21 1709.3 1921.35 1667.27 C 1940.94 1647.73 1961.13 1628.81 1980.52 1609.07 C 2003.15 1586.02 2024.57 1561.48 2048 1539.27 L 2048 1604.27 C 2037.72 1611.59 2028.47 1621.39 2019.48 1630.22 A 6571.94 6571.94 0 0 0 1972.28 1677.62 A 3727.47 3727.47 0 0 1 1844.31 1800.48 A 1132.51 1132.51 0 0 1 1791.73 1790.69 z"/>
<path transform="translate(0,0)" fill="rgb(247,207,140)" d="M 2048 1612.63 L 2048 1715.7 C 2037.3 1721.04 2016.48 1742.37 2005.71 1751.35 C 1978.97 1773.66 1950.9 1796.41 1921.74 1815.49 C 1899.11 1812.37 1876.29 1806.95 1853.81 1802.73 C 1870.2 1785.67 1888.93 1770.15 1906.12 1753.82 A 5068.32 5068.32 0 0 0 1994.23 1667.43 C 2012.29 1649.38 2030.89 1631.58 2048 1612.63 z"/>
<path transform="translate(0,0)" fill="rgb(247,207,140)" d="M 1176.26 1820.11 C 1224.38 1831.59 1272.81 1841.42 1321.13 1851.98 L 1539.31 1900.33 L 1722.98 1941.34 A 8606.3 8606.3 0 0 0 1917.04 1985.22 L 1918.39 1983.9 C 1918.82 1981.08 1919.88 1979.16 1922.1 1977.36 C 1922.57 1976.97 1923.05 1976.61 1923.52 1976.24 L 1920.54 1975.66 L 1920.08 1973.76 C 1927.58 1964.84 1936.9 1957.04 1945.49 1949.17 L 1984.53 1913.33 C 2005.93 1893.5 2026.15 1871.96 2048 1852.71 L 2048 1863.6 L 2048 1892.65 L 2047.25 1893.2 C 2037.59 1900.41 2028.77 1909.17 2019.71 1917.12 A 3374.43 3374.43 0 0 0 1958.94 1971.4 C 1948.1 1981.31 1937.35 1992.8 1925.31 2001.18 C 1924.97 2001.42 1924.64 2001.68 1924.29 2001.91 C 1920.51 2004.41 1913.66 2003.05 1909.36 2002.41 C 1898.21 2000.74 1887.01 1997.77 1875.99 1995.34 L 1813.23 1981.38 L 1621.68 1937.74 C 1476.24 1903.92 1329.98 1873.54 1184.79 1838.64 L 1176.26 1820.11 z"/>
<path transform="translate(0,0)" fill="rgb(5,5,38)" d="M 2048 1852.71 L 2048 1863.6 A 2344.15 2344.15 0 0 1 1951.72 1954.46 C 1941.1 1963.96 1930.09 1975.92 1918.39 1983.9 C 1918.82 1981.08 1919.88 1979.16 1922.1 1977.36 C 1922.57 1976.97 1923.05 1976.61 1923.52 1976.24 L 1920.54 1975.66 L 1920.08 1973.76 C 1927.58 1964.84 1936.9 1957.04 1945.49 1949.17 L 1984.53 1913.33 C 2005.93 1893.5 2026.15 1871.96 2048 1852.71 z"/>
<path transform="translate(0,0)" fill="rgb(254,248,221)" d="M 1326.34 1715.73 C 1340.21 1717.15 1354.16 1720.12 1367.88 1722.53 L 1435.74 1734.61 A 16874.9 16874.9 0 0 1 1623.6 1768.21 L 1822.16 1804.8 C 1853.17 1810.65 1884.92 1815.22 1915.52 1822.79 C 1914.43 1833.96 1912.25 1845.01 1911.3 1856.22 C 1910.35 1867.4 1910.64 1878.74 1910.71 1889.96 C 1890.83 1883.85 1870.04 1879.94 1849.7 1875.61 A 5562.29 5562.29 0 0 0 1747.38 1854.84 A 12648.9 12648.9 0 0 0 1475.89 1804.91 C 1425.03 1795.97 1373.96 1787.87 1323.32 1777.72 C 1321.33 1756.04 1320.09 1736.95 1326.34 1715.73 z"/>
<path transform="translate(0,0)" fill="rgb(254,248,221)" d="M 1325.18 1786.65 C 1343.05 1788.37 1361.19 1792.55 1378.9 1795.69 L 1482.93 1814.19 A 10649.7 10649.7 0 0 1 1773.71 1868.11 A 3113.23 3113.23 0 0 1 1859.11 1885.53 C 1876.3 1889.24 1894.67 1892.18 1910.99 1898.86 C 1908.14 1925.02 1909.83 1949.59 1911.13 1975.66 A 3159.68 3159.68 0 0 0 1832.55 1957.8 L 1513.52 1886.14 A 9251.32 9251.32 0 0 1 1329.16 1844.9 C 1305.64 1839.54 1281.83 1835.23 1258.43 1829.3 C 1265.99 1820.95 1276.17 1814.27 1284.39 1806.37 C 1287.78 1812.19 1292.74 1817.58 1297.24 1822.57 C 1301.53 1827.32 1310.45 1837.5 1317.4 1836.84 C 1320.21 1836.57 1321.94 1835.62 1323.72 1833.46 C 1332.16 1823.2 1327.04 1798.77 1325.18 1786.65 z"/>
<path transform="translate(0,0)" fill="rgb(240,168,145)" d="M 1806.07 1155.83 C 1817.66 1154.91 1861.66 1164.55 1874.96 1167.64 A 36866.7 36866.7 0 0 1 1508.2 1524.17 L 1383.51 1645.06 C 1363.23 1664.99 1340.73 1684.61 1322.66 1706.54 C 1298.8 1703.27 1275.16 1697.69 1251.29 1694.18 C 1260.72 1683.81 1271.22 1674.15 1281.19 1664.3 L 1352.26 1595.15 L 1589 1365.31 L 1734.8 1223.63 L 1776.1 1183.21 C 1785.71 1173.82 1795.19 1163.77 1806.07 1155.83 z"/>
<path transform="translate(0,0)" fill="rgb(247,207,140)" d="M 1720.97 1140.72 C 1728.49 1140.58 1737.34 1143 1744.76 1144.31 A 4831.04 4831.04 0 0 1 1794.79 1153.47 C 1764.09 1182.24 1734.47 1212.29 1704.22 1241.55 L 1460.07 1479.08 L 1326.57 1608.99 C 1298.13 1636.5 1268.53 1663.46 1241.46 1692.31 C 1216.18 1687.97 1190.58 1684.04 1165.54 1678.52 C 1191.86 1648.9 1222.12 1621.53 1250.43 1593.79 L 1391.19 1455.8 A 16974.8 16974.8 0 0 1 1624.73 1232.06 L 1683.97 1176.01 C 1696.28 1164.24 1708.19 1151.99 1720.97 1140.72 z"/>
<path transform="translate(0,0)" fill="rgb(247,207,140)" d="M 1885.37 1169.21 C 1939.66 1177.09 1993.93 1187.69 2048 1197.07 L 2048 1526.74 C 2026.68 1546.92 2006.97 1569.83 1986.51 1590.98 A 5499.32 5499.32 0 0 1 1871.24 1705.21 C 1841.79 1733.75 1812.49 1763.3 1780.37 1788.83 A 5592.72 5592.72 0 0 0 1654.81 1765.98 L 1545.75 1745.94 A 9920.68 9920.68 0 0 1 1331.87 1707.57 C 1360.56 1677.96 1390.68 1649.73 1420.2 1620.97 A 28240 28240 0 0 1 1638.03 1411.15 L 1802.11 1250.78 C 1829.78 1223.58 1856.96 1195.61 1885.37 1169.21 z"/>
<path transform="translate(0,0)" fill="rgb(5,5,38)" d="M 292.126 672.246 L 288.942 490.823 C 288.654 467.409 285.822 442.492 288.244 419.27 C 289.053 411.514 314.714 339.888 318.887 335.336 C 319.931 334.196 320.574 334.355 321.99 334.093 C 327.613 337.149 353.526 401.712 356.21 411.488 C 360.903 428.582 357.991 455.302 358.275 473.806 L 359.968 687.269 C 379.609 695.524 404.88 706.198 413.248 727.718 C 415.499 733.507 415.878 740.45 415.865 746.638 C 415.808 772.783 412.801 799.602 411.142 825.739 C 407.709 879.849 404.037 934.105 401.99 988.285 C 466.568 975.111 531.793 964.634 596.54 952.212 C 614.116 948.84 632.11 946.48 649.521 942.426 C 660.052 923.718 668.803 903.612 678.08 884.236 L 725.543 784.94 C 735.949 763.134 745.467 736.72 760.971 718.062 A 73.4683 73.4683 0 0 1 797.96 694.202 C 815.661 689.158 845.916 690.253 865.214 689.742 C 959.407 687.25 1053.49 690.411 1147.59 694.098 C 1185.37 695.578 1224.71 695.01 1262.14 700.179 C 1278.27 702.406 1293.55 706.607 1307.66 714.913 C 1330.41 728.302 1345.4 748.849 1351.86 774.384 C 1356.81 793.979 1356.25 815.929 1352.64 835.704 C 1344.72 879.231 1316.31 940.27 1298.21 982.739 C 1333.58 989.862 1369.68 993.68 1405.22 999.971 A 32008.6 32008.6 0 0 0 1864.94 1075.97 L 1966.17 1092.87 C 1982.48 1095.53 2017.79 1099.03 2030.94 1104.97 L 2032.1 1107.12 C 2031.22 1109.73 2031.26 1109.64 2028.87 1111.03 C 2007.14 1109.71 1984.11 1104.04 1962.6 1100.41 L 1826.68 1077.64 L 1498.87 1023.84 C 1431.02 1012.59 1363.11 1000.02 1294.98 990.624 C 1286.97 1010.47 1277.66 1029.82 1269.16 1049.46 A 6877.89 6877.89 0 0 1 1203.73 1197.61 C 1189.21 1229.61 1174.05 1261.29 1159.86 1293.44 L 1083.79 1465.04 C 1063.31 1510.47 1042.8 1557.62 1016.44 1600 C 1003.46 1620.88 989.281 1641.77 965.88 1651.62 C 937.024 1663.78 901.139 1665.81 870.011 1666.14 C 767.188 1667.25 640.131 1646.11 539.43 1623.46 C 507.153 1616.2 473.033 1609.05 442.392 1596.34 C 414.273 1584.68 390.088 1565.53 378.177 1536.8 C 369.904 1516.86 369.253 1494.55 377.383 1474.4 C 383.929 1458.17 393.64 1442.59 401.808 1427.07 L 446.269 1341.32 C 512.52 1211.55 582.295 1083.88 644.971 952.272 C 613.344 956.447 582.112 963.331 550.739 969.03 A 10719.5 10719.5 0 0 0 401.475 996.513 L 397.029 1093.38 C 396.354 1111.31 397.625 1137.79 393.465 1154.75 C 391.829 1161.43 387.897 1166.88 382.918 1171.51 C 349.039 1203.01 267.064 1209.68 221.401 1207.13 C 183.736 1205.03 130.894 1196.65 104.295 1166.72 C 100.854 1162.85 97.1584 1158.08 95.6802 1153.08 C 91.569 1139.2 92.4381 1122.74 91.7982 1108.34 C 90.7059 1083.76 90.1567 1058.98 88.1989 1034.47 C 58.7807 1040.75 29.2325 1046.78 0 1053.87 L 0 1045.96 A 3984.04 3984.04 0 0 1 87.8536 1026.59 C 84.3666 974.684 83.0166 922.608 79.8569 870.666 A 5673.72 5673.72 0 0 1 75.6847 798.846 C 74.4415 777.79 72.0244 754.97 74.8436 734.016 C 75.9079 726.105 80.0548 719.518 85.2747 713.609 C 95.6358 701.88 109.768 694.258 124.027 688.31 C 115.962 638.066 104.004 587.956 93.7728 538.069 C 89.7288 518.35 82.717 495.117 82.3185 475.083 C 82.0609 462.136 87.8966 432.044 89.8806 417.473 C 90.9412 409.683 91.2524 392.933 95.7553 386.945 C 95.9453 386.692 96.1935 386.489 96.4126 386.261 C 98.8701 386.242 99.7139 386.832 101.384 388.552 C 105.761 393.058 146.777 459.424 149.142 465.9 C 154.867 481.58 155.787 500.668 159.053 517.183 C 169.311 569.061 179.705 621.134 187.86 673.392 L 213.095 669.43 A 3237.1 3237.1 0 0 0 211.285 581.438 C 210.837 564.16 209.354 545.594 211.406 528.457 C 213.669 509.559 220.054 490.086 224.772 471.582 C 226.721 463.935 230.136 445.689 233.824 439.462 C 236.17 437.846 236.049 437.91 238.88 438.292 C 240.651 439.954 241.666 441.492 242.701 443.701 C 246.782 452.42 249.541 462.013 253.217 470.967 C 260.218 488.016 268.738 505.605 274.11 523.207 C 275.673 528.331 276.488 533.368 276.642 538.716 C 277.025 552.026 276.147 565.55 276.02 578.882 L 275.582 670.908 L 292.126 672.246 z"/>
<path transform="translate(0,0)" fill="rgb(254,248,221)" d="M 321.031 349.535 C 327.237 356.772 343.174 399.667 348.037 411.421 C 340.555 413.832 333.031 414.951 325.244 415.79 C 316.228 415.857 307.598 414.657 298.849 412.545 A 3120.62 3120.62 0 0 1 321.031 349.535 z"/>
<path transform="translate(0,0)" fill="rgb(254,248,221)" d="M 209.994 678.343 L 212.862 678.377 C 215.491 683.115 215.331 798.903 214.514 815.036 C 212.381 809.072 211.246 802.975 210.024 796.777 C 202.168 758.694 196.951 719.935 189.969 681.662 C 196.659 680.696 203.327 679.465 209.994 678.343 z"/>
<path transform="translate(0,0)" fill="rgb(254,248,221)" d="M 99.9258 402.509 C 107.352 409.723 131.409 451.149 139.232 463.254 C 134.584 465.26 129.574 466.611 124.75 468.146 C 113.713 471.509 102.536 472.966 91.0388 473.112 C 93.6332 449.503 96.2893 425.987 99.9258 402.509 z"/>
<path transform="translate(0,0)" fill="rgb(243,237,229)" d="M 237.354 454.724 C 241.627 459.967 263.101 517.195 266.852 527.548 C 260.553 529.911 254.346 531.605 247.723 532.738 C 245.994 532.937 244.307 533.019 242.566 533.043 C 235.417 533.141 226.031 533.149 220.635 527.849 C 219.49 519.212 234.469 466.113 237.354 454.724 z"/>
<path transform="translate(0,0)" fill="rgb(243,237,229)" d="M 275.53 679.34 L 292.552 681.077 L 293.261 766.388 C 293.34 779.149 294.485 792.699 293.526 805.375 L 291.882 806.773 C 285.775 807.124 279.661 807.761 273.564 808.276 C 272.84 784.525 274.067 760.548 274.638 736.792 C 275.098 717.646 274.886 698.48 275.53 679.34 z"/>
<path transform="translate(0,0)" fill="rgb(243,237,229)" d="M 359.654 696.476 C 373.134 701.322 386.443 707.434 396.476 717.999 C 403.033 724.902 408.26 733.538 407.716 743.382 C 407.074 755.009 399.3 763.382 391.293 770.921 C 381.818 778.793 370.463 784.15 359.251 789.037 A 5415 5415 0 0 0 359.654 696.476 z"/>
<path transform="translate(0,0)" fill="rgb(243,237,229)" d="M 123.456 696.681 C 124.476 696.849 125.031 697.397 125.861 697.985 C 129.583 709.188 130.875 722.086 133.042 733.756 C 136.781 753.888 140.913 773.957 144.182 794.172 C 134.485 790.817 125.167 786.465 116.007 781.872 C 104.752 775.685 93.252 767.794 86.8513 756.333 C 82.6106 748.739 81.1443 739.877 83.8852 731.511 C 89.5434 714.242 108.217 704.119 123.456 696.681 z"/>
<path transform="translate(0,0)" fill="rgb(243,237,229)" d="M 82.5253 765.36 C 111.725 795.415 151.435 809.389 192.309 815.232 C 250.217 823.511 318.181 817.185 371.474 792.466 C 378.478 789.218 385.712 785.649 391.932 781.028 C 395.431 778.429 399.69 773.464 403.446 771.69 C 405.302 770.814 405.164 770.905 406.505 769.244 C 406.588 769.519 406.712 769.785 406.752 770.07 C 407.303 773.978 403.426 779.025 401.342 782.042 C 392.437 792.146 383.049 800.913 371.661 808.188 C 317.468 842.808 241.251 845.669 179.935 832.037 C 145.59 824.401 102.991 809.184 83.1873 777.906 L 82.5253 765.36 z"/>
<path transform="translate(0,0)" fill="rgb(203,212,232)" d="M 267.88 536.184 C 269.88 538.778 264.963 780.108 265.015 808.984 C 252.889 809.33 235.64 811.802 224.032 808.697 L 223.269 807.011 A 11766.4 11766.4 0 0 0 219.048 538.16 C 235.712 542.407 251.717 541.853 267.88 536.184 z"/>
<path transform="translate(0,0)" fill="rgb(247,207,140)" d="M 141.791 471.127 C 144.971 473.617 197.411 777.217 203.574 808.129 C 189.187 805.898 174.939 803.369 160.876 799.562 L 153.453 797.61 A 9683.54 9683.54 0 0 0 111.762 585.177 C 104.908 550.889 97.1089 516.7 91.3393 482.213 C 108.863 480.925 125.27 477.049 141.791 471.127 z"/>
<path transform="translate(0,0)" fill="rgb(240,168,145)" d="M 348.159 420.233 L 349.085 420.463 C 352.287 426.509 351.333 752.376 351.838 791.991 A 313.634 313.634 0 0 1 312.676 803.297 C 309.444 803.988 305.077 805.491 302.278 803.674 C 300.744 754.905 301.658 706.018 300.634 657.236 L 297.832 513.165 A 4002.4 4002.4 0 0 1 296.073 420.416 C 314.543 424.702 329.669 424.37 348.159 420.233 z"/>
<path transform="translate(0,0)" fill="rgb(203,212,232)" d="M 1327.15 742.532 C 1331.61 746.54 1335.07 752.983 1337.59 758.412 C 1355.03 796.076 1345.62 839.866 1331.97 876.999 C 1311.17 933.57 1286.99 988.729 1262.66 1043.84 L 1154.99 1283.57 L 1075.19 1464.29 C 1055.34 1508.12 1035.43 1552.25 1010.51 1593.48 C 998.703 1613.01 986.251 1633.31 964.748 1643.1 C 892.086 1676.22 721.58 1648.4 641.812 1634.87 C 577.717 1623.99 506.804 1611.8 445.851 1589 C 435.111 1584.58 425.529 1579.32 415.904 1572.82 C 460.13 1584.81 504.733 1596.14 549.778 1604.6 C 631.702 1619.99 873.324 1653.56 944.321 1624.51 C 961.511 1617.48 972.318 1603.2 980.34 1587.01 C 994.092 1559.24 1003.17 1527.08 1014.2 1497.91 A 9457.76 9457.76 0 0 1 1085.78 1313.85 A 16190.6 16190.6 0 0 1 1179.07 1083.85 L 1327.15 742.532 z"/>
<path transform="translate(0,0)" fill="rgb(5,5,38)" d="M 1322.19 804.694 C 1324.91 805.46 1326.95 806.172 1329.33 807.804 C 1329.78 813.363 1319.79 834.138 1317.41 840.192 A 3342.59 3342.59 0 0 1 1276.07 943.024 L 1206.54 1103.12 L 1089.61 1383.44 C 1064.95 1442.07 1037.73 1500.03 1015.92 1559.77 C 1013.18 1559.71 1012.66 1559.75 1010.37 1558.3 C 1009.24 1555.69 1009.4 1553.72 1010.17 1551.04 C 1013.98 1537.73 1020.81 1524.04 1026.05 1511.18 A 6519.67 6519.67 0 0 1 1073.39 1400.84 C 1114.66 1304.82 1153.14 1207.58 1193.77 1111.29 C 1218.15 1053.52 1244.36 996.531 1268.81 938.795 A 5597.4 5597.4 0 0 0 1322.19 804.694 z"/>
<path transform="translate(0,0)" fill="rgb(254,248,221)" d="M 403.879 792.81 C 403.98 793.329 404.131 793.841 404.183 794.367 C 405.503 807.54 402.209 833.861 401.405 848.026 L 395.014 966.41 L 389.423 1081.08 C 388.572 1102.9 389.039 1125.45 386.718 1147.13 C 386.023 1153.63 384.306 1158.05 379.945 1162.94 C 356.628 1189.1 293.318 1197.56 259.203 1199.1 C 216.016 1201.05 146.977 1196.4 114.413 1165.55 C 104.08 1155.77 101.672 1146.9 101.082 1133.25 C 100.968 1101.94 98.3704 1070.24 96.839 1038.94 C 92.8362 957.148 87.0974 875.33 83.7336 793.524 C 124.547 833.217 187.207 846.431 242.739 847.595 C 301.282 848.822 360.793 834.201 403.879 792.81 z"/>
<path transform="translate(0,0)" fill="rgb(203,212,232)" d="M 878.811 697.5 A 5476.58 5476.58 0 0 1 1145.1 701.839 C 1181.65 703.121 1239.98 702.86 1274.61 710.753 C 1292.42 714.814 1307.61 722.782 1321.23 734.892 C 1315.64 751.306 1307.6 767.439 1300.69 783.343 L 1268.91 857.036 A 10027.4 10027.4 0 0 0 1164.84 1096.68 A 17909.3 17909.3 0 0 0 1041.81 1402.84 A 6446.83 6446.83 0 0 0 1004.72 1500.04 C 995.513 1525.06 987.066 1550.84 976.429 1575.28 C 971.898 1585.7 966.008 1597.82 957.811 1605.87 C 931.971 1631.27 856.342 1627.02 821.066 1626.85 A 1707.56 1707.56 0 0 1 402.663 1560.12 C 389.808 1545.04 380.092 1527.02 379.584 1506.8 C 379.247 1493.35 383.445 1480.64 389.139 1468.62 C 404.557 1436.05 422.978 1404.43 439.535 1372.39 L 585.347 1092.08 A 13769.1 13769.1 0 0 0 705.692 845.903 L 740.512 772.973 C 746.946 759.441 752.883 744.957 760.695 732.192 C 763.587 727.466 767.496 722.978 771.372 719.019 C 796.718 693.131 845.067 698.069 878.811 697.5 z"/>
<path transform="translate(0,0)" fill="rgb(5,5,38)" d="M 671.392 1051.38 C 689.366 1049.87 713.136 1050.04 728.491 1060.92 C 734.338 1065.06 738.559 1071.02 739.646 1078.18 C 740.941 1086.7 737.895 1095.39 732.688 1102.09 C 723.294 1114.19 710.062 1117.85 695.66 1119.93 C 677.399 1120.6 654.646 1121.07 638.6 1110.8 C 631.979 1106.57 627.006 1100.27 625.594 1092.43 C 624.067 1083.94 626.992 1075.5 632.155 1068.77 C 641.918 1056.05 656.394 1053.1 671.392 1051.38 z"/>
<path transform="translate(0,0)" fill="rgb(240,168,145)" d="M 671.714 1059.37 C 671.776 1059.36 671.836 1059.35 671.898 1059.34 C 687.824 1057.84 710.291 1057.55 723.724 1067.63 C 727.964 1070.82 731.207 1075.25 731.815 1080.62 C 732.513 1086.78 730.221 1092.67 726.282 1097.34 C 718.088 1107.06 706.376 1110.37 694.269 1111.61 C 678.856 1113.12 658.361 1112.89 644.669 1104.63 C 639.273 1101.37 635.187 1096.66 633.959 1090.36 C 632.846 1084.65 634.425 1078.87 637.937 1074.28 C 646.073 1063.64 659.232 1060.96 671.714 1059.37 z"/>
<path transform="translate(0,0)" fill="rgb(5,5,38)" d="M 1051.83 1084.4 C 1069.9 1083.14 1093.19 1084.02 1108.71 1094.58 C 1115.13 1098.95 1120.06 1105.4 1121.16 1113.23 C 1122.36 1121.75 1119.44 1130.77 1114.15 1137.43 C 1105.13 1148.78 1091.59 1152.17 1077.96 1153.96 C 1059.75 1157 1033.48 1154.87 1018.24 1143.54 C 1011.85 1138.78 1007.45 1132.12 1006.54 1124.12 C 1005.57 1115.71 1008.4 1107.28 1013.73 1100.79 C 1023.43 1088.97 1037.46 1086.04 1051.83 1084.4 z"/>
<path transform="translate(0,0)" fill="rgb(240,168,145)" d="M 1057.34 1092.44 C 1072.72 1092.58 1093.63 1093.07 1106.09 1103.34 C 1110.2 1106.72 1113.04 1111.32 1113.52 1116.68 C 1114 1122.06 1111.94 1127.07 1108.54 1131.17 C 1099.26 1142.34 1084.44 1144.95 1070.83 1146.3 C 1055.77 1147.31 1035.15 1146.23 1022.87 1136.43 C 1018.08 1132.61 1014.97 1127.5 1014.55 1121.32 C 1014.14 1115.23 1016.56 1109.44 1020.62 1104.97 C 1030.12 1094.51 1044.12 1093.18 1057.34 1092.44 z"/>
<path transform="translate(0,0)" fill="rgb(5,5,38)" d="M 798.489 1060.42 C 814.935 1059.04 838.307 1060.69 852.561 1069.77 C 859.173 1073.98 864.062 1080.33 865.448 1088.14 C 866.938 1096.54 864.273 1104.93 859.253 1111.67 C 849.116 1125.3 834.107 1128.8 818.237 1130.79 C 799.929 1131.3 777.496 1131.24 761.981 1119.85 C 755.52 1115.11 751.067 1108.46 749.994 1100.44 C 748.829 1091.74 751.785 1083.07 757.415 1076.43 C 767.852 1064.11 783.338 1061.59 798.489 1060.42 z"/>
<path transform="translate(0,0)" fill="rgb(240,168,145)" d="M 796.583 1068.4 C 811.529 1066.92 833.82 1067.91 847.013 1076.02 C 852.203 1079.21 856.24 1084.07 857.338 1090.18 C 858.436 1096.28 856.718 1102.19 853 1107.08 C 844.928 1117.71 831.921 1120.96 819.417 1122.68 C 803.76 1124.29 779.49 1123.14 766.561 1113.05 C 761.754 1109.3 758.536 1104.2 757.93 1098.07 C 757.341 1092.11 759.417 1086.44 763.25 1081.9 C 771.755 1071.84 784.199 1069.52 796.583 1068.4 z"/>
<path transform="translate(0,0)" fill="rgb(5,5,38)" d="M 926.582 1070.42 C 943.385 1069.41 966.2 1070.37 980.975 1079.39 C 987.573 1083.41 992.467 1089.5 994.129 1097.12 C 995.983 1105.62 993.608 1114.25 988.67 1121.27 C 979.325 1134.57 965.418 1138.55 950.25 1140.93 C 930.598 1141.84 906.396 1141.52 889.869 1129.15 C 883.562 1124.43 879.251 1117.91 878.307 1110 C 877.278 1101.39 880.446 1093.01 885.954 1086.46 C 896.484 1073.93 911.236 1071.54 926.582 1070.42 z"/>
<path transform="translate(0,0)" fill="rgb(240,168,145)" d="M 917.88 1079.35 C 934.497 1077.3 959.904 1077.62 974.874 1085.58 C 980.251 1088.44 984.679 1092.8 986.198 1098.85 C 987.543 1104.2 986.498 1109.57 983.687 1114.27 C 977.746 1124.21 967.177 1129.23 956.338 1131.7 C 938.962 1134.84 914.251 1134.62 898.683 1125.28 C 892.823 1121.76 888.242 1116.57 886.859 1109.74 C 885.684 1103.93 886.913 1098.34 890.325 1093.52 C 896.975 1084.13 907.117 1080.98 917.88 1079.35 z"/>
<path transform="translate(0,0)" fill="rgb(5,5,38)" d="M 469.018 1461.36 C 485.823 1459.23 512.873 1461.22 527.434 1470.66 C 533.392 1474.52 537.796 1480.21 539.046 1487.3 C 540.771 1497.08 536.566 1507.58 531.112 1515.52 C 520.071 1531.6 504.607 1538.58 485.958 1541.73 C 466.909 1544.11 441.002 1544.01 424.42 1532.9 C 418.568 1528.98 414.273 1523.42 413.134 1516.36 C 411.352 1505.32 416.662 1493.29 423.234 1484.6 C 434.925 1469.15 450.694 1463.94 469.018 1461.36 z"/>
<path transform="translate(0,0)" fill="rgb(254,248,221)" d="M 467.72 1469.26 C 482.906 1467.04 508.185 1468.53 521.635 1476.54 C 526.244 1479.29 529.912 1483.26 531.08 1488.62 C 532.776 1496.39 529.179 1504.76 524.815 1511.04 C 514.964 1525.2 501.647 1530.99 485.239 1533.7 C 468.924 1535.91 446.904 1536.01 432.125 1527.69 C 427.244 1524.95 423.216 1520.95 421.822 1515.38 C 419.793 1507.28 423.239 1498.31 427.739 1491.66 C 437.428 1477.33 451.48 1472.17 467.72 1469.26 z"/>
<path transform="translate(0,0)" fill="rgb(5,5,38)" d="M 751.611 1180.42 C 767.67 1179.61 791.018 1181.07 804.038 1191.56 C 809.573 1196.01 812.866 1202.2 813.489 1209.28 C 814.478 1220.52 808.9 1232 801.984 1240.58 C 788.604 1257.16 772.267 1260.73 752.243 1262.79 C 735.489 1263.42 711.63 1262.84 698.044 1251.75 C 692.458 1247.19 689.133 1241.03 688.532 1233.84 C 687.524 1221.76 694.035 1209.44 701.826 1200.6 C 715.243 1185.36 732.331 1181.72 751.611 1180.42 z"/>
<path transform="translate(0,0)" fill="rgb(254,248,221)" d="M 753.38 1188.44 C 766.985 1188.05 786.952 1188.64 798.096 1197.52 C 802.458 1201 805.006 1205.66 805.453 1211.23 C 806.193 1220.46 801.364 1229.8 795.442 1236.57 C 783.118 1250.66 767.79 1253.21 750.266 1254.21 C 736.13 1254.61 714.628 1254.57 703.148 1245.11 C 698.952 1241.65 696.807 1237.01 696.562 1231.61 C 696.137 1222.23 701.843 1212.27 707.944 1205.56 C 720.238 1192.03 736.143 1189.3 753.38 1188.44 z"/>
<path transform="translate(0,0)" fill="rgb(5,5,38)" d="M 526.573 1363.43 C 540.701 1362.16 561.31 1364.38 572.745 1373.37 C 578.323 1377.76 581.923 1383.83 582.615 1390.94 C 583.777 1402.87 577.159 1415.76 569.518 1424.64 C 555.122 1441.37 536.256 1444.48 515.386 1446 C 499.485 1446.01 478.567 1445.3 465.283 1435.35 C 460.306 1431.62 456.931 1426.45 456.357 1420.19 C 455.234 1407.93 464.117 1392.31 471.803 1383.11 C 485.004 1367.31 507.383 1365.08 526.573 1363.43 z"/>
<path transform="translate(0,0)" fill="rgb(254,248,221)" d="M 522.829 1371.41 C 535.608 1370.05 555.633 1370.83 566.305 1378.67 C 570.556 1381.8 573.352 1386.15 574.042 1391.41 C 575.29 1400.93 570.004 1411.11 564.114 1418.21 C 551.726 1433.13 536.047 1436.14 517.887 1438.08 C 504.013 1438.43 484.372 1438.8 472.325 1430.9 C 468.385 1428.32 465.708 1424.65 465 1419.95 C 463.54 1410.24 470.524 1397.14 476.498 1389.68 C 487.755 1375.62 506.054 1373.25 522.829 1371.41 z"/>
<path transform="translate(0,0)" fill="rgb(5,5,38)" d="M 869.993 1195.36 C 887.888 1192.73 917.416 1193.8 932.802 1204.52 C 938.619 1208.57 942.672 1214.68 943.648 1221.75 C 945.15 1232.62 940.119 1244.12 933.764 1252.7 C 923.424 1266.67 909.976 1272.4 893.244 1274.83 C 873.451 1276.63 845.719 1277.82 828.604 1265.77 C 822.771 1261.66 818.377 1255.86 817.329 1248.67 C 815.747 1237.83 821.367 1226.06 827.716 1217.52 C 838.539 1202.95 852.767 1197.79 869.993 1195.36 z"/>
<path transform="translate(0,0)" fill="rgb(254,248,221)" d="M 882.195 1202.45 C 896.652 1202.66 917.387 1202.37 929.295 1211.91 C 933.497 1215.27 936.122 1219.8 936.527 1225.2 C 937.19 1234.03 931.885 1243.02 926.365 1249.48 C 913.747 1264.24 898.198 1266.63 880 1267.79 C 865.487 1267.61 843.715 1267.72 831.789 1258.44 C 828.097 1255.57 825.774 1251.55 825.36 1246.87 C 824.518 1237.35 830.441 1225.33 836.583 1218.36 C 848.481 1204.87 865.431 1203.26 882.195 1202.45 z"/>
<path transform="translate(0,0)" fill="rgb(5,5,38)" d="M 642.565 1378.42 C 659.874 1377.13 686.292 1377.86 700.076 1389.89 C 705.359 1394.5 708.766 1400.72 709.151 1407.78 C 709.759 1418.93 703.572 1429.84 696.459 1438.01 C 683.69 1452.67 667.137 1458.07 648.245 1459.46 C 631.849 1461.29 605.006 1460.16 591.136 1449.97 C 586.074 1446.25 582.815 1441.02 582.148 1434.74 C 580.797 1422.03 588.025 1406.94 596.369 1397.54 C 609.134 1383.15 624.315 1379.84 642.565 1378.42 z"/>
<path transform="translate(0,0)" fill="rgb(254,248,221)" d="M 641.33 1386.4 C 655.932 1384.54 679.278 1385.53 691.784 1393.99 C 696.228 1397 699.604 1401.27 700.563 1406.64 C 701.917 1414.21 698.543 1422.06 694.223 1428.11 C 684.011 1442.42 669.782 1447.96 653.203 1450.88 C 636.847 1451.85 609.974 1453.73 596.172 1443.1 C 592.397 1440.19 590.112 1436.3 589.671 1431.53 C 588.8 1422.11 595.501 1411.44 601.377 1404.43 C 612.195 1391.52 625.316 1387.91 641.33 1386.4 z"/>
<path transform="translate(0,0)" fill="rgb(5,5,38)" d="M 711.081 1281.43 C 725.96 1281.08 745.477 1282.34 757.272 1292.47 C 762.614 1297.06 765.825 1303.25 766.034 1310.33 C 766.393 1322.44 758.989 1334.86 750.839 1343.44 C 735.7 1359.38 715.93 1362.67 694.938 1363.11 C 679.821 1363.11 657.286 1362.91 645.267 1352.23 C 641.048 1348.48 639.001 1343.25 638.747 1337.69 C 638.141 1324.44 645.801 1309.15 654.47 1299.41 C 668.92 1283.18 690.879 1282.53 711.081 1281.43 z"/>
<path transform="translate(0,0)" fill="rgb(254,248,221)" d="M 710.082 1289.45 C 722.925 1289.34 740.489 1289.76 751.013 1298.09 C 754.825 1301.1 757.257 1305.19 757.705 1310.07 C 758.576 1319.56 752.591 1329.33 746.507 1336.1 C 733.046 1351.08 716.22 1354.11 697.201 1355.06 C 684.633 1355.14 662.917 1355.78 652.61 1347.42 C 649.282 1344.72 647.431 1341.25 647.041 1336.99 C 646.141 1327.15 652.426 1313.45 658.639 1306.21 C 671.409 1291.34 691.997 1290.48 710.082 1289.45 z"/>
<path transform="translate(0,0)" fill="rgb(5,5,38)" d="M 624.535 1166.42 C 641.033 1165.1 666.001 1165.87 679.434 1176.92 C 684.818 1181.35 688.157 1187.34 688.621 1194.34 C 689.393 1205.97 683.151 1217.6 675.83 1226.27 C 662.416 1242.18 646.082 1246.1 626.245 1247.77 C 608.968 1248.49 583.603 1248.19 569.439 1236.76 C 564.467 1232.74 561.306 1227.35 560.657 1220.96 C 559.406 1208.63 565.983 1195.62 573.915 1186.6 C 587.433 1171.22 605.205 1167.73 624.535 1166.42 z"/>
<path transform="translate(0,0)" fill="rgb(254,248,221)" d="M 627.725 1174.43 C 640.658 1173 664.028 1174.31 674.281 1182.92 C 677.89 1185.95 680.173 1190.13 680.56 1194.84 C 681.337 1204.3 675.699 1214.15 669.672 1221.01 C 657.457 1234.93 642.778 1238.42 625.169 1239.85 C 610.669 1239.89 587.756 1240.24 575.508 1231.33 C 571.7 1228.56 569.236 1224.64 568.803 1219.91 C 567.914 1210.18 574.14 1198.15 580.474 1191.11 C 592.964 1177.24 610.322 1175.58 627.725 1174.43 z"/>
<path transform="translate(0,0)" fill="rgb(5,5,38)" d="M 567.055 1267.38 C 584.845 1265.62 610.347 1266.21 625.277 1277.48 C 631.055 1281.84 635.045 1288.08 635.834 1295.35 C 636.999 1306.08 631.977 1317.14 625.318 1325.3 C 613.679 1339.54 596.191 1346.43 578.245 1347.91 C 560.25 1349.7 533.34 1350.04 517.852 1339.4 C 512.306 1335.6 508.218 1330.12 507.274 1323.35 C 505.676 1311.89 511.972 1299.49 518.908 1290.66 C 531.437 1274.71 547.831 1269.75 567.055 1267.38 z"/>
<path transform="translate(0,0)" fill="rgb(254,248,221)" d="M 568.571 1275.36 C 582.652 1273.1 606.014 1274.41 618.381 1282.26 C 623.004 1285.2 626.644 1289.4 627.805 1294.86 C 629.406 1302.39 626.201 1310.38 621.923 1316.47 C 611.204 1331.72 595.658 1337.06 578.15 1339.82 C 562.278 1341.44 535.389 1342.36 521.988 1332.59 C 518.305 1329.9 515.826 1326.14 515.22 1321.59 C 514.023 1312.61 519.601 1303.01 524.968 1296.15 C 536.329 1281.65 551.279 1277.6 568.571 1275.36 z"/>
<path transform="translate(0,0)" fill="rgb(5,5,38)" d="M 779.578 1391.43 C 795.64 1390.16 820.961 1391.81 833.932 1402.58 C 839.369 1407.09 842.494 1413.2 842.775 1420.28 C 843.246 1432.16 837.02 1444.27 829.159 1452.89 C 816.317 1466.97 798.723 1472.15 780.25 1473.13 C 763.808 1474.59 737.278 1474.54 723.299 1464.64 C 718.363 1461.15 715.227 1456.07 714.535 1450.04 C 713.053 1437.15 721.693 1420.56 729.88 1410.88 C 742.9 1395.47 760.625 1392.85 779.578 1391.43 z"/>
<path transform="translate(0,0)" fill="rgb(254,248,221)" d="M 776.579 1399.41 C 790.786 1397.85 813.831 1398.66 825.939 1407.03 C 830.304 1410.05 833.398 1414.38 834.216 1419.68 C 835.508 1428.05 831.462 1437.1 826.541 1443.64 C 815.824 1457.9 801.041 1462.45 784.248 1464.87 C 768.252 1465.61 741.811 1468.11 728.374 1457.82 C 725.068 1455.29 723.041 1451.82 722.695 1447.65 C 721.881 1437.83 729.69 1423.27 735.916 1415.87 C 746.438 1403.36 761.264 1400.84 776.579 1399.41 z"/>
<path transform="translate(0,0)" fill="rgb(5,5,38)" d="M 1004.6 1210.39 C 1021.28 1208.2 1046.28 1210.67 1060.82 1219.76 C 1067.39 1223.86 1072.7 1230.07 1074.34 1237.77 C 1076.54 1248.13 1072.37 1259.09 1066.43 1267.46 C 1054.61 1284.1 1038.23 1289.16 1019.24 1292.25 C 1000.7 1294.35 974.182 1293.85 958.222 1282.7 C 952.569 1278.75 948.613 1273.19 947.645 1266.28 C 945.94 1254.09 951.756 1240.87 959.268 1231.51 C 971.11 1216.75 986.705 1212.25 1004.6 1210.39 z"/>
<path transform="translate(0,0)" fill="rgb(254,248,221)" d="M 1003.66 1218.38 C 1018.86 1216.35 1042.24 1218.08 1055.64 1226.2 C 1060.84 1229.35 1065.03 1234.07 1066.31 1240.13 C 1067.91 1247.69 1064.99 1255.68 1060.68 1261.84 C 1050.79 1275.95 1035.39 1281.27 1019.22 1283.94 C 1003.3 1285.78 977.093 1286.49 963.47 1276.79 C 959.216 1273.76 956.396 1269.45 955.654 1264.26 C 954.299 1254.77 959.047 1244.8 964.721 1237.49 C 974.698 1224.62 988.123 1220.13 1003.66 1218.38 z"/>
<path transform="translate(0,0)" fill="rgb(5,5,38)" d="M 729.116 1490.4 C 746.254 1489.29 768.934 1488.88 783.436 1499.59 C 789.589 1504.13 793.682 1510.68 794.536 1518.33 C 795.886 1530.43 789.698 1543.17 781.973 1552.12 C 770.027 1565.96 753.099 1571.95 735.249 1572.99 C 717.796 1573.95 690.616 1575.52 675.705 1564.62 C 671.179 1561.31 668.277 1556.67 667.614 1551.07 C 666.066 1538 675.682 1518.97 683.854 1509 C 695.59 1494.68 711.838 1492.34 729.116 1490.4 z"/>
<path transform="translate(0,0)" fill="rgb(254,248,221)" d="M 725.627 1498.36 C 741.115 1496.65 764.329 1495.7 777.697 1505.15 C 782.485 1508.54 785.771 1513.34 786.594 1519.2 C 787.814 1527.88 783.733 1537.28 778.605 1544.07 C 767.939 1558.19 752.832 1562.54 736.235 1564.87 C 721.42 1565.76 694.338 1568.03 681.614 1559.12 C 678.329 1556.82 676.224 1553.63 675.633 1549.64 C 674.155 1539.66 681.588 1524.72 687.536 1516.79 C 697.156 1503.95 710.57 1500.38 725.627 1498.36 z"/>
<path transform="translate(0,0)" fill="rgb(5,5,38)" d="M 603.58 1476.42 C 619.544 1475.53 643.344 1476.72 656.713 1486.59 C 662.424 1490.81 666.304 1496.67 667.133 1503.78 C 668.449 1515.09 662.384 1526.93 655.414 1535.5 C 642.718 1551.11 625.625 1557 606.25 1558.95 C 589.084 1560.2 560.657 1560.54 546.449 1549.13 C 541.743 1545.35 539.036 1540.21 538.643 1534.18 C 537.81 1521.39 546.214 1504.55 554.501 1494.96 C 567.341 1480.11 585.079 1477.71 603.58 1476.42 z"/>
<path transform="translate(0,0)" fill="rgb(254,248,221)" d="M 598.774 1484.4 C 613.168 1482.52 637.248 1483.79 649.862 1491.62 C 654.34 1494.4 657.764 1498.54 658.725 1503.81 C 660.264 1512.25 656.211 1521.09 651.206 1527.67 C 639.977 1542.43 624.968 1548.15 607.24 1550.65 C 592.493 1552.39 565.834 1552.83 553.434 1543.85 C 549.62 1541.09 547.285 1537.14 546.781 1532.46 C 545.676 1522.18 552.459 1510.46 558.854 1502.71 C 569.542 1489.76 582.832 1486.06 598.774 1484.4 z"/>
<path transform="translate(0,0)" fill="rgb(5,5,38)" d="M 826.854 1294.4 C 844.264 1292.93 871.362 1291.67 885.976 1302.98 C 891.52 1307.27 894.777 1313.26 895.427 1320.23 C 896.541 1332.14 890.239 1344.35 882.828 1353.32 C 870.202 1368.6 854.335 1373.92 835.242 1375.69 C 818.649 1377 789.273 1377.09 775.172 1366.82 C 770.631 1363.51 767.608 1358.77 766.765 1353.19 C 764.779 1340.05 773.35 1322.74 781.528 1312.66 C 792.711 1298.87 810.282 1296.37 826.854 1294.4 z"/>
<path transform="translate(0,0)" fill="rgb(254,248,221)" d="M 828.148 1302.39 C 842.631 1300.81 867.751 1299.52 879.928 1308.98 C 884.165 1312.27 886.657 1316.82 887.044 1322.18 C 887.746 1331.92 882.575 1341.59 876.328 1348.69 C 864.536 1362.1 850.606 1366.57 833.248 1367.5 C 819.685 1368.85 790.701 1368.71 779.314 1360.17 C 776.577 1358.11 775.161 1355.3 774.765 1351.95 C 773.488 1341.16 780.31 1327.29 786.942 1318.94 C 797.132 1306.1 812.803 1304.08 828.148 1302.39 z"/>
<path transform="translate(0,0)" fill="rgb(5,5,38)" d="M 984.268 719.417 C 1018.62 715.928 1119.98 720.087 1146.39 740.971 C 1150.64 744.327 1154.13 749.117 1154.63 754.651 C 1154.94 757.996 1153.85 761.158 1151.68 763.709 C 1137.52 780.408 1082.62 781.452 1061.33 782.561 C 1025.15 783.958 922.49 782.462 894.475 760.185 C 892.225 758.396 890.154 755.958 890.095 752.929 C 890.035 749.858 891.706 747.108 893.595 744.823 C 910.584 724.275 958.797 721.407 984.268 719.417 z"/>
<path transform="translate(0,0)" fill="rgb(203,212,232)" d="M 1004.95 727.486 C 1037.15 727.084 1115.33 729.653 1141.43 746.993 C 1144.43 748.986 1146.07 750.607 1146.79 754.235 C 1146.38 756.119 1145.91 757.403 1144.57 758.798 C 1130.64 773.339 1062.17 773.997 1040.54 774.351 A 844.899 844.899 0 0 1 979.903 771.858 C 960.814 770.237 912.042 766.66 900.051 752.428 C 899.648 750.245 899.172 749.357 900.785 747.51 C 914.666 731.616 982.462 728.181 1004.95 727.486 z"/>
<path transform="translate(0,0)" fill="rgb(5,5,38)" d="M 958.97 1303.43 C 974.07 1302.71 1017.75 1305.37 1029.57 1315.26 C 1031.3 1316.7 1032.04 1318.29 1032.21 1320.48 C 1032.55 1325.02 1030.86 1329.79 1029.26 1333.99 C 1023.06 1350.35 1015.02 1366.32 1007.87 1382.32 L 972.838 1461.2 C 958.687 1492.53 946.219 1525.19 930.635 1555.8 C 927.3 1562.36 923.394 1568.91 918.34 1574.3 C 905.961 1587.49 882.833 1588.61 866.044 1589.29 C 858.147 1589.8 850.222 1589.61 842.316 1589.39 C 830.159 1589.05 800.259 1589.48 792.563 1579.67 C 790.335 1576.83 789.878 1573.53 790.526 1570.05 C 792.431 1559.82 811.501 1527.93 817.257 1516.9 A 8023.7 8023.7 0 0 1 886.059 1387.44 C 898.606 1364.34 910.646 1340.53 924.657 1318.29 C 927.984 1313.01 931.061 1308.67 936.174 1304.93 C 943.73 1304.15 951.385 1303.89 958.97 1303.43 z"/>
<path transform="translate(0,0)" fill="rgb(254,248,221)" d="M 957.022 1311.42 C 979.132 1309.9 1004.4 1313.21 1025.03 1321.44 C 1014.84 1351.6 997.892 1384.17 984.924 1413.77 L 943.823 1506.66 C 936.99 1522 930.686 1537.84 923.203 1552.86 C 920.737 1557.81 917.701 1563.57 913.884 1567.57 C 902.258 1579.77 882.869 1580.55 867.182 1581.22 C 854 1581.9 808.775 1582.55 799.668 1575.26 C 798.762 1574.53 798.61 1574.62 798.556 1573.57 C 798.136 1565.34 920.56 1337.57 937.723 1313.31 C 944.11 1312.3 950.579 1311.93 957.022 1311.42 z"/>
<path transform="translate(0,0)" fill="rgb(5,5,38)" d="M 770.959 809.884 C 819.316 812.429 867.938 811.671 916.36 812.175 L 1232.18 815.027 C 1236.92 815.113 1244.64 814.736 1248.09 818.334 C 1246.99 837.54 1168.13 989.15 1150.37 1019.49 C 1150.07 1019.71 1149.8 1019.96 1149.49 1020.14 C 1147.5 1021.29 1145.32 1021.29 1143.09 1021.33 C 1109.52 1021.88 1075.78 1020.16 1042.22 1019.48 L 849.516 1015.51 A 7560.55 7560.55 0 0 1 728.31 1012.22 C 713.728 1011.76 694.368 1013.5 680.658 1009.86 C 677.756 1009.09 676.301 1008.29 674.857 1005.66 C 675.171 1000.72 676.606 996.525 678.514 992.007 C 684.816 977.077 692.817 962.621 700.106 948.137 A 3601.85 3601.85 0 0 1 740.968 868.606 C 751.15 849.258 759.745 828.603 770.959 809.884 z"/>
<path transform="translate(0,0)" fill="rgb(254,248,221)" d="M 775.212 818.916 L 1238.61 823.468 C 1230.8 844.468 1220.23 864.72 1210.39 884.839 C 1189.31 927.933 1166.75 970.185 1145.25 1013.03 C 1086.57 1013.82 1027.51 1011.15 968.811 1009.9 A 19698.4 19698.4 0 0 1 682.512 1002.66 C 690.251 983.168 701.121 964.117 710.61 945.365 C 731.985 903.123 754.248 861.366 775.212 818.916 z"/>
<path transform="translate(0,0)" fill="rgb(5,5,38)" d="M 931.966 885.49 C 934.357 885.828 935.457 886.138 937.348 887.66 C 939.858 893.764 933.747 907.664 932.14 914.355 C 936.459 914.238 940.937 913.956 945.243 914.319 C 948.677 914.608 952.44 915.671 954.669 918.331 L 953.624 920.108 C 945.959 923.988 939.094 923.132 930.728 922.821 C 929.069 930.935 927.28 939.031 923.84 946.598 L 920.44 944.533 C 917.105 938.256 920.768 929.307 922.358 922.839 C 915.56 922.932 903.6 924.202 898.207 919.577 L 898.872 918.167 C 906.68 913.969 915.418 914.797 924.006 914.864 C 925.739 905.509 926.705 893.49 931.966 885.49 z"/>
<path transform="translate(0,0)" fill="rgb(5,5,38)" d="M 1003.67 871.566 C 1004.34 871.714 1005.04 871.75 1005.67 872.011 C 1007.89 872.927 1009.21 874.404 1009.43 876.792 C 1010.06 883.632 988.9 962.729 984.451 967.898 C 981.918 968.737 982.559 968.565 980.405 967.554 C 977.587 961.323 982.404 950.395 984.314 943.981 L 998.874 887.222 C 994.264 891.364 985.489 901.238 978.931 901.28 C 976.326 901.297 975.798 900.89 974.282 899.065 C 975.187 892.471 989.492 885.598 994.566 881.204 C 997.865 878.346 1000.77 874.831 1003.67 871.566 z"/>
<path transform="translate(0,0)" fill="rgb(5,5,38)" d="M 878.179 872.436 C 879.797 872.743 881.427 873.337 883.011 873.799 C 884.92 875.775 885.28 875.98 885.003 878.931 C 883.852 891.193 876.163 909.781 872.447 922.233 C 868.157 936.611 864.855 952.241 859.34 966.144 C 858.714 967.722 858.278 968.369 856.901 969.346 C 854.317 969.19 854.172 969.006 852.13 967.378 C 850.966 961.706 855.995 949.908 857.67 943.995 C 863.211 926.101 868.023 907.972 873.577 890.067 C 868.331 896.05 861.536 903.076 854.22 906.549 C 852.203 907.506 852.1 907.68 849.957 906.846 C 849.89 906.559 849.781 906.278 849.755 905.984 C 849.519 903.29 851.353 900.325 852.962 898.272 C 856.212 894.122 861.158 891.379 864.967 887.704 C 869.733 883.106 873.929 877.525 878.179 872.436 z"/>
<path transform="translate(0,0)" fill="rgb(5,5,38)" d="M 1083.38 871.143 C 1083.88 871.074 1084.38 870.997 1084.88 870.936 C 1089.48 870.378 1094.31 870.851 1097.97 873.919 C 1102.47 877.683 1105.06 883.49 1105.2 889.296 C 1105.82 915.461 1074.09 943.079 1057.38 959.824 C 1065.15 959.81 1088.25 957.258 1093.57 961.414 C 1094.58 963.619 1095.07 963.703 1094.52 966.178 C 1084.72 970.506 1059.54 968.071 1048.24 967.502 C 1045.83 966.013 1045.18 965.989 1044.21 963.381 C 1046.46 955.697 1072.16 933.678 1079.37 925.24 C 1084.15 919.65 1088.43 913.256 1091.63 906.63 C 1094.8 900.071 1098.05 890.741 1095.15 883.564 C 1094.07 880.878 1092.58 879.708 1089.98 878.516 C 1076.64 877.941 1075.16 893.135 1064.96 896.869 C 1063.36 897.452 1063.74 897.156 1061.95 896.3 C 1061.23 894.487 1061.48 893.007 1062.03 891.157 C 1064.84 881.783 1075.21 875.436 1083.38 871.143 z"/>
</svg>